# This file uses centimeters as units for non-parametric coordinates.

mtllib ice.mtl
v -0.213312 -0.090296 0.812985
v -0.004096 0.346812 -0.162323
v -0.027692 -0.085526 0.918994
v 0.131534 0.245950 -0.411869
v 0.017770 0.351079 0.019235
v 0.010750 0.140256 -0.900784
v -0.141460 0.107616 0.966210
v -0.138718 -0.236920 -0.433232
v 0.252737 0.139088 0.015011
v -0.063584 -0.221344 0.606407
v -0.277387 -0.025353 -0.687848
v -0.258702 -0.174446 -0.411869
v 0.110055 0.290632 0.342248
v -0.356570 0.060104 0.467543
v 0.197551 0.209316 -0.142396
v -0.349090 -0.037706 -0.348365
v -0.379905 -0.067584 0.015011
v -0.152700 0.044829 -0.911448
v -0.186068 -0.276919 0.026497
v 0.084365 0.118992 0.867751
v -0.314520 -0.134846 0.349141
v 0.146614 -0.159366 -0.411869
v -0.237149 0.296887 -0.142396
v -0.374644 0.095240 -0.162323
v -0.124689 0.249555 -0.687848
v -0.016293 0.254431 0.754388
v -0.002479 -0.178051 -0.687848
v -0.123992 0.362339 0.022179
v 0.223363 -0.067044 0.327558
v -0.123072 -0.275308 -0.162323
v 0.150219 0.096857 -0.687848
v 0.104783 -0.138339 0.691953
v 0.009874 -0.249754 -0.348365
v 0.221922 0.109210 -0.348365
v -0.324719 -0.137813 -0.142396
v -0.003176 -0.290835 0.022179
v -0.137042 0.321258 -0.348365
v 0.011550 0.308424 -0.433232
v -0.307361 0.150353 -0.534562
v 0.181245 -0.183013 0.023723
v 0.109981 -0.225383 -0.142396
v -0.308413 0.254517 0.023723
v -0.114508 -0.102610 -0.860414
v 0.168551 -0.059931 -0.616519
v 0.247476 -0.023736 -0.162323
v -0.255772 0.212464 0.618852
v 0.222166 0.077227 0.496854
v -0.274350 0.235591 -0.388921
vt 0.437500 0.875000
vt 0.562500 0.875000
vt 0.500000 1.000000
vt 0.500000 0.750000
vt 0.625000 0.750000
vt 0.562500 0.875000
vt 0.562500 0.875000
vt 0.437500 0.875000
vt 0.500000 0.750000
vt 0.375000 0.750000
vt 0.500000 0.750000
vt 0.437500 0.875000
vt 0.562500 0.625000
vt 0.687500 0.625000
vt 0.625000 0.750000
vt 0.625000 0.750000
vt 0.500000 0.750000
vt 0.437500 0.625000
vt 0.562500 0.625000
vt 0.500000 0.750000
vt 0.500000 0.750000
vt 0.375000 0.750000
vt 0.437500 0.625000
vt 0.312500 0.625000
vt 0.437500 0.625000
vt 0.375000 0.750000
vt 0.625000 0.500000
vt 0.750000 0.500000
vt 0.687500 0.625000
vt 0.687500 0.625000
vt 0.562500 0.625000
vt 0.625000 0.500000
vt 0.500000 0.500000
vt 0.625000 0.500000
vt 0.562500 0.625000
vt 0.562500 0.625000
vt 0.437500 0.625000
vt 0.500000 0.500000
vt 0.375000 0.500000
vt 0.500000 0.500000
vt 0.437500 0.625000
vt 0.437500 0.625000
vt 0.312500 0.625000
vt 0.375000 0.500000
vt 0.250000 0.500000
vt 0.375000 0.500000
vt 0.312500 0.625000
vt 0.687500 0.375000
vt 0.812500 0.375000
vt 0.750000 0.500000
vt 0.750000 0.500000
vt 0.625000 0.500000
vt 0.687500 0.375000
vt 0.562500 0.375000
vt 0.687500 0.375000
vt 0.625000 0.500000
vt 0.625000 0.500000
vt 0.562500 0.375000
vt 0.437500 0.375000
vt 0.562500 0.375000
vt 0.500000 0.500000
vt 0.375000 0.500000
vt 0.437500 0.375000
vt 0.312500 0.375000
vt 0.437500 0.375000
vt 0.375000 0.500000
vt 0.375000 0.500000
vt 0.250000 0.500000
vt 0.312500 0.375000
vt 0.187500 0.375000
vt 0.312500 0.375000
vt 0.250000 0.500000
vt 0.750000 0.250000
vt 0.875000 0.250000
vt 0.812500 0.375000
vt 0.812500 0.375000
vt 0.687500 0.375000
vt 0.750000 0.250000
vt 0.625000 0.250000
vt 0.750000 0.250000
vt 0.687500 0.375000
vt 0.687500 0.375000
vt 0.562500 0.375000
vt 0.625000 0.250000
vt 0.500000 0.250000
vt 0.562500 0.375000
vt 0.437500 0.375000
vt 0.500000 0.250000
vt 0.375000 0.250000
vt 0.500000 0.250000
vt 0.437500 0.375000
vt 0.437500 0.375000
vt 0.312500 0.375000
vt 0.375000 0.250000
vt 0.250000 0.250000
vt 0.375000 0.250000
vt 0.312500 0.375000
vt 0.312500 0.375000
vt 0.187500 0.375000
vt 0.250000 0.250000
vt 0.125000 0.250000
vt 0.250000 0.250000
vt 0.187500 0.375000
vt 0.812500 0.125000
vt 0.937500 0.125000
vt 0.875000 0.250000
vt 0.875000 0.250000
vt 0.750000 0.250000
vt 0.812500 0.125000
vt 0.687500 0.125000
vt 0.812500 0.125000
vt 0.750000 0.250000
vt 0.750000 0.250000
vt 0.625000 0.250000
vt 0.687500 0.125000
vt 0.562500 0.125000
vt 0.687500 0.125000
vt 0.625000 0.250000
vt 0.625000 0.250000
vt 0.500000 0.250000
vt 0.562500 0.125000
vt 0.437500 0.125000
vt 0.562500 0.125000
vt 0.500000 0.250000
vt 0.500000 0.250000
vt 0.375000 0.250000
vt 0.437500 0.125000
vt 0.312500 0.125000
vt 0.437500 0.125000
vt 0.375000 0.250000
vt 0.375000 0.250000
vt 0.250000 0.250000
vt 0.312500 0.125000
vt 0.187500 0.125000
vt 0.312500 0.125000
vt 0.250000 0.250000
vt 0.250000 0.250000
vt 0.125000 0.250000
vt 0.187500 0.125000
vt 0.062500 0.125000
vt 0.187500 0.125000
vt 0.125000 0.250000
vt 0.875000 0.000000
vt 1.000000 0.000000
vt 0.937500 0.125000
vt 0.937500 0.125000
vt 0.812500 0.125000
vt 0.875000 0.000000
vt 0.750000 0.000000
vt 0.875000 0.000000
vt 0.812500 0.125000
vt 0.687500 0.125000
vt 0.750000 0.000000
vt 0.625000 0.000000
vt 0.750000 0.000000
vt 0.687500 0.125000
vt 0.687500 0.125000
vt 0.562500 0.125000
vt 0.625000 0.000000
vt 0.500000 0.000000
vt 0.625000 0.000000
vt 0.562500 0.125000
vt 0.562500 0.125000
vt 0.437500 0.125000
vt 0.500000 0.000000
vt 0.375000 0.000000
vt 0.500000 0.000000
vt 0.437500 0.125000
vt 0.437500 0.125000
vt 0.312500 0.125000
vt 0.375000 0.000000
vt 0.250000 0.000000
vt 0.375000 0.000000
vt 0.312500 0.125000
vt 0.312500 0.125000
vt 0.187500 0.125000
vt 0.250000 0.000000
vt 0.125000 0.000000
vt 0.250000 0.000000
vt 0.187500 0.125000
vt 0.187500 0.125000
vt 0.062500 0.125000
vt 0.125000 0.000000
vt 0.000000 0.000000
vt 0.125000 0.000000
vt 0.062500 0.125000
vt 0.437500 0.875000
vt 0.562500 0.875000
vt 0.500000 1.000000
vt 0.500000 0.750000
vt 0.625000 0.750000
vt 0.562500 0.875000
vt 0.562500 0.875000
vt 0.437500 0.875000
vt 0.500000 0.750000
vt 0.375000 0.750000
vt 0.500000 0.750000
vt 0.437500 0.875000
vt 0.562500 0.625000
vt 0.687500 0.625000
vt 0.625000 0.750000
vt 0.625000 0.750000
vt 0.500000 0.750000
vt 0.437500 0.625000
vt 0.562500 0.625000
vt 0.500000 0.750000
vt 0.437500 0.625000
vt 0.437500 0.625000
vt 0.375000 0.750000
vt 0.625000 0.500000
vt 0.750000 0.500000
vt 0.687500 0.625000
vt 0.687500 0.625000
vt 0.562500 0.625000
vt 0.625000 0.500000
vt 0.500000 0.500000
vt 0.625000 0.500000
vt 0.562500 0.625000
vt 0.562500 0.625000
vt 0.437500 0.625000
vt 0.500000 0.500000
vt 0.437500 0.625000
vt 0.437500 0.625000
vt 0.312500 0.625000
vt 0.375000 0.500000
vt 0.250000 0.500000
vt 0.375000 0.500000
vt 0.312500 0.625000
vt 0.812500 0.375000
vt 0.750000 0.500000
vt 0.750000 0.500000
vt 0.625000 0.500000
vt 0.687500 0.375000
vt 0.562500 0.375000
vt 0.687500 0.375000
vt 0.625000 0.500000
vt 0.500000 0.500000
vt 0.562500 0.375000
vt 0.562500 0.375000
vt 0.500000 0.500000
vt 0.500000 0.500000
vt 0.375000 0.500000
vt 0.437500 0.375000
vt 0.312500 0.375000
vt 0.437500 0.375000
vt 0.375000 0.500000
vt 0.375000 0.500000
vt 0.312500 0.375000
vt 0.187500 0.375000
vt 0.312500 0.375000
vt 0.250000 0.500000
vt 0.750000 0.250000
vt 0.875000 0.250000
vt 0.812500 0.375000
vt 0.812500 0.375000
vt 0.687500 0.375000
vt 0.750000 0.250000
vt 0.625000 0.250000
vt 0.687500 0.375000
vn 0.001466 0.270172 -0.962811
vn 0.001466 0.270172 -0.962811
vn 0.001466 0.270172 -0.962811
vn 0.857511 0.474676 -0.198388
vn 0.857511 0.474676 -0.198388
vn 0.857511 0.474676 -0.198388
vn -0.875920 0.469594 0.110659
vn -0.875920 0.469594 0.110659
vn -0.875920 0.469594 0.110659
vn -0.661678 -0.677497 -0.321216
vn -0.661678 -0.677497 -0.321216
vn -0.661678 -0.677497 -0.321216
vn -0.939003 0.082406 0.333890
vn -0.939003 0.082406 0.333890
vn -0.939003 0.082406 0.333890
vn -0.434868 -0.447241 0.781578
vn -0.434868 -0.447241 0.781578
vn -0.434868 -0.447241 0.781578
vn 0.081474 0.983619 0.160798
vn 0.081474 0.983619 0.160798
vn 0.081474 0.983619 0.160798
vn -0.373581 0.706985 -0.600508
vn -0.373581 0.706985 -0.600508
vn -0.373581 0.706985 -0.600508
vn -0.273453 0.023668 0.961594
vn -0.273453 0.023668 0.961594
vn -0.273453 0.023668 0.961594
vn -0.211246 -0.887367 0.409823
vn -0.211246 -0.887367 0.409823
vn -0.211246 -0.887367 0.409823
vn 0.772827 -0.621167 0.129958
vn 0.772827 -0.621167 0.129958
vn 0.772827 -0.621167 0.129958
vn 0.854782 0.499315 -0.141533
vn 0.854782 0.499315 -0.141533
vn 0.854782 0.499315 -0.141533
vn -0.984105 0.049498 -0.170549
vn -0.984105 0.049498 -0.170549
vn -0.984105 0.049498 -0.170549
vn 0.974623 -0.217730 -0.051999
vn 0.974623 -0.217730 -0.051999
vn 0.974623 -0.217730 -0.051999
vn 0.112845 0.302663 0.946394
vn 0.112845 0.302663 0.946394
vn 0.112845 0.302663 0.946394
vn 0.245222 0.722909 0.645963
vn 0.245222 0.722909 0.645963
vn 0.245222 0.722909 0.645963
vn -0.564936 -0.824716 -0.026286
vn -0.564936 -0.824716 -0.026286
vn -0.564936 -0.824716 -0.026286
vn 0.221015 0.917595 -0.330411
vn 0.221015 0.917595 -0.330411
vn 0.221015 0.917595 -0.330411
vn 0.021119 0.284029 0.958583
vn 0.021119 0.284029 0.958583
vn 0.021119 0.284029 0.958583
vn -0.274152 0.092319 0.957245
vn -0.274152 0.092319 0.957245
vn -0.274152 0.092319 0.957245
vn 0.839890 0.529049 0.121209
vn 0.839890 0.529049 0.121209
vn 0.839890 0.529049 0.121209
vn -0.208269 0.977964 0.014494
vn -0.208269 0.977964 0.014494
vn -0.208269 0.977964 0.014494
vn 0.034205 -0.977591 -0.207714
vn 0.034205 -0.977591 -0.207714
vn 0.034205 -0.977591 -0.207714
vn 0.984832 -0.045147 -0.167534
vn 0.984832 -0.045147 -0.167534
vn 0.984832 -0.045147 -0.167534
vn -0.685541 0.577682 -0.443078
vn -0.685541 0.577682 -0.443078
vn -0.685541 0.577682 -0.443078
vn -0.072820 -0.991219 0.110372
vn -0.072820 -0.991219 0.110372
vn -0.072820 -0.991219 0.110372
vn 0.192975 0.232892 -0.953164
vn 0.192975 0.232892 -0.953164
vn 0.192975 0.232892 -0.953164
vn -0.501281 0.858886 0.105031
vn -0.501281 0.858886 0.105031
vn -0.501281 0.858886 0.105031
vn -0.490085 -0.851786 0.185141
vn -0.490085 -0.851786 0.185141
vn -0.490085 -0.851786 0.185141
vn -0.479105 -0.857626 0.186909
vn -0.479105 -0.857626 0.186909
vn -0.479105 -0.857626 0.186909
vn -0.163217 -0.938484 -0.304315
vn -0.163217 -0.938484 -0.304315
vn -0.163217 -0.938484 -0.304315
vn 0.564936 0.824716 -0.026286
vn 0.564936 0.824716 -0.026286
vn 0.564936 0.824716 -0.026286
vn -0.912446 -0.337420 0.231497
vn -0.912445 -0.337420 0.231497
vn -0.912445 -0.337420 0.231497
vn 0.500681 -0.858006 0.114652
vn 0.500681 -0.858006 0.114652
vn 0.500681 -0.858006 0.114652
vn 0.605587 -0.505859 -0.614306
vn 0.605587 -0.505859 -0.614306
vn 0.605587 -0.505859 -0.614306
vn -0.482108 -0.827588 -0.287525
vn -0.482108 -0.827588 -0.287525
vn -0.482108 -0.827588 -0.287525
vn 0.977965 0.208264 0.014494
vn 0.977965 0.208264 0.014494
vn 0.977965 0.208264 0.014494
vn -0.976122 0.216952 -0.010881
vn -0.976122 0.216952 -0.010881
vn -0.976122 0.216952 -0.010881
vn 0.927261 -0.281712 0.246627
vn 0.927261 -0.281712 0.246627
vn 0.927261 -0.281712 0.246627
vn -0.870933 0.483857 -0.085782
vn -0.870933 0.483857 -0.085782
vn -0.870933 0.483857 -0.085782
vn -0.886972 0.154643 0.435163
vn -0.886972 0.154643 0.435163
vn -0.886972 0.154643 0.435163
vn -0.879866 0.218214 -0.422159
vn -0.879866 0.218214 -0.422159
vn -0.879866 0.218214 -0.422159
vn 0.134961 -0.217003 -0.966796
vn 0.134961 -0.217003 -0.966796
vn 0.134961 -0.217003 -0.966796
vn -0.005568 -0.990139 -0.139981
vn -0.005568 -0.990139 -0.139981
vn -0.005568 -0.990139 -0.139981
vn -0.978428 0.012950 -0.206183
vn -0.978428 0.012950 -0.206183
vn -0.978428 0.012950 -0.206183
vn 0.208269 -0.977964 0.014494
vn 0.208269 -0.977964 0.014494
vn 0.208269 -0.977964 0.014494
vn -0.950325 -0.283296 0.128939
vn -0.950325 -0.283296 0.128939
vn -0.950325 -0.283296 0.128939
vn -0.194013 -0.231963 -0.953180
vn -0.194013 -0.231963 -0.953180
vn -0.194013 -0.231963 -0.953180
vn -0.134961 0.217003 -0.966796
vn -0.134961 0.217003 -0.966796
vn -0.134961 0.217003 -0.966796
vn 0.273453 -0.023668 0.961594
vn 0.273453 -0.023668 0.961594
vn 0.273453 -0.023668 0.961594
vn 0.499295 -0.854794 -0.141533
vn 0.499295 -0.854794 -0.141533
vn 0.499295 -0.854794 -0.141533
vn 0.276605 -0.087286 -0.957011
vn 0.276606 -0.087286 -0.957011
vn 0.276606 -0.087286 -0.957011
vn 0.474710 -0.857490 -0.198395
vn 0.474710 -0.857490 -0.198395
vn 0.474710 -0.857490 -0.198395
vn 0.681632 0.662069 -0.311518
vn 0.681632 0.662069 -0.311518
vn 0.681632 0.662069 -0.311518
vn 0.824718 -0.564932 -0.026286
vn 0.824718 -0.564932 -0.026286
vn 0.824718 -0.564932 -0.026286
vn 0.996791 -0.057305 0.055887
vn 0.996791 -0.057305 0.055887
vn 0.996791 -0.057305 0.055887
vn -0.733922 -0.679199 0.006891
vn -0.733922 -0.679199 0.006891
vn -0.733922 -0.679199 0.006891
vn 0.005568 0.990139 -0.139981
vn 0.005568 0.990139 -0.139981
vn 0.005568 0.990139 -0.139981
vn -0.854782 -0.499315 -0.141533
vn -0.854782 -0.499315 -0.141533
vn -0.854782 -0.499315 -0.141533
vn 0.655739 0.707630 0.263184
vn 0.655739 0.707630 0.263184
vn 0.655739 0.707630 0.263184
vn 0.810102 -0.161688 -0.563552
vn 0.810102 -0.161688 -0.563552
vn 0.810102 -0.161688 -0.563552
vn 0.625488 -0.430748 -0.650555
vn 0.625488 -0.430748 -0.650554
vn 0.625488 -0.430748 -0.650555
vn -0.857511 -0.474676 -0.198388
vn -0.857511 -0.474676 -0.198388
vn -0.857511 -0.474676 -0.198388
vn -0.362545 0.852476 0.376625
vn -0.362545 0.852476 0.376625
vn -0.362545 0.852476 0.376625
vn -0.034205 0.977591 -0.207714
vn -0.034205 0.977591 -0.207714
vn -0.034205 0.977591 -0.207714
vn 0.622528 -0.728066 -0.287018
vn 0.622528 -0.728065 -0.287018
vn 0.622528 -0.728066 -0.287018
vn 0.784939 0.576608 0.226702
vn 0.784939 0.576608 0.226702
vn 0.784939 0.576608 0.226702
vn 0.274152 -0.092319 0.957245
vn 0.274152 -0.092319 0.957245
vn 0.274152 -0.092319 0.957245
vn 0.482056 0.824173 -0.297257
vn 0.482056 0.824173 -0.297257
vn 0.482056 0.824173 -0.297257
vn 0.791713 -0.300522 0.531862
vn 0.791713 -0.300522 0.531862
vn 0.791713 -0.300522 0.531862
vn 0.978070 0.020045 -0.207309
vn 0.978070 0.020045 -0.207309
vn 0.978070 0.020045 -0.207309
vn -0.751415 -0.381125 -0.538627
vn -0.751415 -0.381125 -0.538627
vn -0.751415 -0.381125 -0.538627
vn -0.825378 0.564361 -0.015767
vn -0.825378 0.564361 -0.015767
vn -0.825378 0.564361 -0.015767
vn 0.916687 -0.173267 0.360089
vn 0.916687 -0.173267 0.360089
vn 0.916687 -0.173267 0.360089
vn 0.668449 0.741929 -0.052134
vn 0.668449 0.741929 -0.052134
vn 0.668449 0.741929 -0.052134
vn -0.977965 -0.208264 0.014494
vn -0.977965 -0.208264 0.014494
vn -0.977965 -0.208264 0.014494
vn -0.044339 -0.285708 -0.957290
vn -0.044339 -0.285708 -0.957290
vn -0.044339 -0.285708 -0.957290
vn 0.399172 0.011012 0.916810
vn 0.399172 0.011012 0.916810
vn 0.399172 0.011012 0.916810
vn 0.889185 -0.441718 -0.119311
vn 0.889185 -0.441718 -0.119311
vn 0.889185 -0.441718 -0.119311
vn -0.112845 -0.302663 0.946394
vn -0.112845 -0.302663 0.946394
vn -0.112845 -0.302663 0.946394
vn 0.217896 -0.268304 -0.938368
vn 0.217896 -0.268304 -0.938368
vn 0.217896 -0.268304 -0.938368
vn -0.267157 0.946912 0.178845
vn -0.267157 0.946912 0.178845
vn -0.267157 0.946912 0.178845
vn -0.494389 0.858095 -0.138755
vn -0.494389 0.858095 -0.138755
vn -0.494389 0.858095 -0.138755
vn -0.473187 -0.875633 -0.096755
vn -0.473187 -0.875633 -0.096755
vn -0.473187 -0.875632 -0.096755
vn 0.473187 0.875633 -0.096755
vn 0.473187 0.875633 -0.096755
vn 0.473187 0.875632 -0.096755
vn 0.375964 -0.914790 0.147684
vn 0.375964 -0.914790 0.147684
vn 0.375964 -0.914790 0.147684
vn 0.259139 -0.896358 0.359708
vn 0.259139 -0.896358 0.359708
vn 0.259139 -0.896358 0.359708
vn -0.629389 0.724399 -0.281274
vn -0.629389 0.724399 -0.281274
vn -0.629389 0.724399 -0.281274
vn -0.476013 0.856791 -0.198295
vn -0.476013 0.856791 -0.198295
vn -0.476013 0.856791 -0.198295
vn 0.129083 0.983600 0.125968
vn 0.129083 0.983600 0.125968
vn 0.129083 0.983600 0.125968
vn -0.023653 -0.273411 0.961606
vn -0.023653 -0.273411 0.961606
vn -0.023653 -0.273411 0.961606
vn -0.276605 0.087286 -0.957011
vn -0.276606 0.087286 -0.957011
vn -0.276606 0.087286 -0.957011
s off
usemtl blinn1SG
f 28/1/1 5/2/2 41/3/3
f 4/4/4 34/5/5 31/6/6
f 42/7/7 14/8/8 46/9/9
f 11/10/10 43/11/11 12/12/12
f 1/13/13 7/14/14 46/15/15
f 3/16/16 7/17/17 1/13/18
f 28/18/19 13/19/20 5/20/21
f 18/21/22 25/22/23 6/23/24
f 24/24/25 35/25/26 9/26/27
f 1/27/28 10/28/29 3/29/30
f 29/30/31 32/31/32 40/32/33
f 34/33/34 4/34/35 15/35/36
f 39/36/37 16/37/38 24/38/39
f 40/39/40 9/40/41 29/41/42
f 15/42/43 2/43/44 17/44/45
f 7/45/46 20/46/47 26/47/48
f 30/48/49 35/49/50 12/50/51
f 25/51/52 38/52/53 6/53/54
f 2/54/55 23/55/56 19/56/57
f 23/57/58 24/38/59 40/58/60
f 13/59/61 47/60/62 9/40/63
f 23/61/64 2/62/65 37/63/66
f 8/64/67 27/65/68 33/66/69
f 44/67/70 34/68/71 45/69/72
f 25/70/73 18/71/74 39/72/75
f 19/73/76 36/74/77 10/75/78
f 5/76/79 9/77/80 30/78/81
f 28/79/82 42/80/83 46/81/84
f 10/82/85 1/83/86 19/84/87
f 21/85/88 19/84/89 1/83/90
f 27/86/91 8/87/92 43/88/93
f 2/89/94 15/90/95 4/91/96
f 1/92/97 14/93/98 21/94/99
f 36/95/100 40/96/101 32/97/102
f 44/98/103 27/99/104 43/100/105
f 8/101/106 12/102/107 43/103/108
f 15/104/109 45/105/110 34/106/111
f 42/107/112 17/108/113 14/109/114
f 47/110/115 32/111/116 29/112/117
f 48/113/118 39/114/119 24/115/120
f 46/116/121 14/117/122 1/118/123
f 11/119/124 39/120/125 18/121/126
f 40/122/127 36/123/128 23/124/129
f 8/125/130 33/126/131 30/127/132
f 39/128/133 11/129/134 16/130/135
f 41/131/136 30/132/137 33/133/138
f 17/134/139 21/135/140 14/136/141
f 19/137/142 17/138/143 2/139/144
f 42/140/145 28/141/146 41/142/147
f 45/143/148 15/144/149 17/145/150
f 33/146/151 22/147/152 41/148/153
f 9/149/154 40/150/155 24/151/156
f 22/147/157 33/152/158 27/153/159
f 31/154/160 6/155/161 4/156/162
f 45/157/163 41/158/164 22/159/165
f 29/160/166 9/161/167 47/162/168
f 19/163/169 21/164/170 17/165/171
f 38/166/172 37/167/173 2/168/174
f 16/169/175 12/170/176 35/171/177
f 26/172/178 20/173/179 13/174/180
f 44/175/181 6/176/182 31/177/183
f 43/178/184 6/179/185 44/180/186
f 12/181/187 16/182/188 11/183/189
f 26/184/190 46/185/191 7/186/192
f 38/187/193 25/188/194 37/189/195
f 27/190/196 44/191/197 22/192/198
f 47/193/199 13/194/200 20/195/201
f 41/196/202 45/197/203 42/198/204
f 38/199/205 4/200/206 6/201/207
f 20/202/208 3/203/209 32/31/210
f 44/204/211 31/205/212 34/206/213
f 43/11/214 11/10/215 18/207/216
f 24/24/217 23/208/218 48/209/219
f 32/210/220 47/211/221 20/212/222
f 9/213/223 5/214/224 13/215/225
f 35/216/226 24/217/227 16/218/228
f 36/219/229 19/220/230 23/61/231
f 20/46/232 7/221/233 3/222/234
f 22/223/235 44/224/236 45/225/237
f 35/226/238 30/227/239 9/228/240
f 6/53/241 43/229/242 18/230/243
f 28/231/244 46/232/245 26/233/246
f 37/234/247 48/235/248 23/57/249
f 12/236/250 8/237/251 30/238/252
f 4/91/253 38/239/254 2/240/255
f 36/241/256 32/242/257 10/243/258
f 10/244/259 32/245/260 3/246/261
f 25/247/262 39/72/263 48/248/264
f 48/249/265 37/250/266 25/251/267
f 13/252/268 28/253/269 26/254/270
f 30/255/271 41/256/272 5/257/273
f 17/258/274 42/80/275 45/259/276
