# This file uses centimeters as units for non-parametric coordinates.

mtllib Tower-ICECRYSTAL.mtl
g default1
v -0.086825 -0.080452 1.952790
v 0.032893 0.169671 1.205586
v 0.019391 -0.077722 2.034002
v 0.110503 0.111956 1.014404
v 0.045405 0.172113 1.344679
v 0.041388 0.051476 0.639834
v -0.045710 0.032798 2.070175
v -0.044141 -0.164354 0.998035
v 0.179859 0.050807 1.341445
v -0.001147 -0.155441 1.794525
v -0.123490 -0.043290 0.802973
v -0.112798 -0.128604 1.014404
v 0.098213 0.137524 1.592147
v -0.168801 0.005610 1.688140
v 0.148280 0.090993 1.220852
v -0.164520 -0.050358 1.063055
v -0.182153 -0.067455 1.341445
v -0.052142 -0.003130 0.631667
v -0.071236 -0.187241 1.350246
v 0.083513 0.039307 1.994747
v -0.144739 -0.105944 1.597427
v 0.119133 -0.119975 1.014404
v -0.100465 0.141103 1.220852
v -0.179143 0.025716 1.205586
v -0.036113 0.114019 0.802973
v 0.025914 0.116808 1.907896
v 0.033818 -0.130667 0.802973
v -0.035714 0.178556 1.346937
v 0.163050 -0.067147 1.580890
v -0.035188 -0.186320 1.205586
v 0.121196 0.026641 0.802973
v 0.095196 -0.107943 1.860061
v 0.040887 -0.171697 1.063055
v 0.162226 0.033710 1.063055
v -0.150575 -0.107642 1.220852
v 0.033419 -0.195205 1.346937
v -0.043181 0.155049 1.063055
v 0.041846 0.147705 0.998035
v -0.140642 0.057253 0.920403
v 0.138949 -0.133506 1.348120
v 0.098170 -0.157752 1.220852
v -0.141244 0.116858 1.348120
v -0.030287 -0.087498 0.670764
v 0.131686 -0.063076 0.857614
v 0.176848 -0.042365 1.205586
v -0.111122 0.092794 1.804060
v 0.162365 0.015409 1.710595
v -0.121753 0.106028 1.031983
vt 0.692883 0.495445
vt 0.693553 0.521210
vt 0.667453 0.508997
vt 0.689838 0.551024
vt 0.690507 0.576790
vt 0.664407 0.564576
vt 0.652431 0.492005
vt 0.651761 0.466240
vt 0.677861 0.478453
vt 0.933345 0.498728
vt 0.934015 0.524493
vt 0.907915 0.512280
vt 0.761040 0.518901
vt 0.786805 0.518232
vt 0.774592 0.544332
vt 0.774592 0.544332
vt 0.748827 0.545001
vt 0.671141 0.586829
vt 0.671811 0.612594
vt 0.645711 0.600381
vt 0.654426 0.547454
vt 0.653757 0.521689
vt 0.679857 0.533902
vt 0.638793 0.506941
vt 0.639462 0.532706
vt 0.613362 0.520493
vt 0.635353 0.547394
vt 0.636023 0.573160
vt 0.609923 0.560947
vt 0.944548 0.623445
vt 0.943879 0.597680
vt 0.969979 0.609893
vt 0.633257 0.466721
vt 0.633927 0.492486
vt 0.607827 0.480273
vt 0.852408 0.572583
vt 0.851739 0.546818
vt 0.877839 0.559031
vt 0.853472 0.592183
vt 0.854142 0.617948
vt 0.828042 0.605735
vt 0.626956 0.633941
vt 0.626286 0.608176
vt 0.652386 0.620389
vt 0.796292 0.462485
vt 0.822058 0.461816
vt 0.809844 0.487915
vt 0.611353 0.573246
vt 0.612022 0.599011
vt 0.585922 0.586798
vt 0.757760 0.630543
vt 0.731995 0.631212
vt 0.744208 0.605113
vt 0.599304 0.497876
vt 0.599974 0.523641
vt 0.573873 0.511428
vt 0.878508 0.584797
vt 0.903939 0.571245
vt 0.879573 0.604396
vt 0.880242 0.630161
vt 0.831878 0.537798
vt 0.831208 0.512033
vt 0.857308 0.524246
vt 0.595310 0.538344
vt 0.595979 0.564109
vt 0.569879 0.551896
vt 0.582001 0.630064
vt 0.581332 0.604298
vt 0.607432 0.616512
vt 0.709978 0.560592
vt 0.735744 0.559923
vt 0.723530 0.586023
vt 0.573862 0.468264
vt 0.574532 0.494029
vt 0.548432 0.481816
vt 0.550993 0.580414
vt 0.550324 0.554649
vt 0.576424 0.566863
vt 0.562011 0.594710
vt 0.562681 0.620475
vt 0.536581 0.608262
vt 0.737278 0.489801
vt 0.711512 0.490470
vt 0.723725 0.464370
vt 0.697960 0.465040
vt 0.539862 0.540339
vt 0.539192 0.514574
vt 0.565292 0.526787
vt 0.818502 0.562818
vt 0.819171 0.588583
vt 0.793071 0.576370
vt 0.513865 0.510742
vt 0.513196 0.484976
vt 0.539296 0.497190
vt 0.530711 0.555158
vt 0.531380 0.580924
vt 0.505280 0.568711
vt 0.507056 0.637056
vt 0.506386 0.611291
vt 0.532486 0.623504
vt 0.498231 0.470229
vt 0.498901 0.495994
vt 0.472801 0.483781
vt 0.500227 0.525678
vt 0.500896 0.551443
vt 0.474797 0.539230
vt 0.481615 0.607444
vt 0.480945 0.581679
vt 0.507045 0.593892
vt 0.465719 0.556847
vt 0.466388 0.582612
vt 0.440288 0.570399
vt 0.459350 0.527295
vt 0.458681 0.501529
vt 0.484781 0.513742
vt 0.461725 0.597315
vt 0.462394 0.623080
vt 0.436294 0.610867
vt 0.428312 0.497828
vt 0.427642 0.472063
vt 0.453742 0.484276
vt 0.439329 0.512123
vt 0.439999 0.537888
vt 0.413899 0.525675
vt 0.410763 0.599194
vt 0.410094 0.573429
vt 0.436194 0.585642
vt 0.416739 0.613620
vt 0.417409 0.639385
vt 0.391308 0.627172
vt 0.394720 0.564292
vt 0.394051 0.538527
vt 0.420151 0.550740
vt 0.408029 0.472572
vt 0.408698 0.498337
vt 0.382599 0.486124
vt 0.368462 0.524610
vt 0.367792 0.498845
vt 0.393892 0.511058
vt 0.390612 0.578980
vt 0.391281 0.604746
vt 0.365181 0.592532
vt 0.374992 0.539022
vt 0.375662 0.564787
vt 0.349562 0.552574
vt 0.800684 0.503290
vt 0.774919 0.503959
vt 0.787132 0.477859
vt 0.371784 0.609743
vt 0.372454 0.635508
vt 0.346354 0.623295
vt 0.749154 0.504629
vt 0.761367 0.478529
vt 0.353121 0.473999
vt 0.353791 0.499764
vt 0.327691 0.487551
vt 0.330252 0.586149
vt 0.329583 0.560384
vt 0.355683 0.572597
vt 0.334001 0.514860
vt 0.334670 0.540625
vt 0.308570 0.528412
vt 0.300917 0.622230
vt 0.300247 0.596465
vt 0.326347 0.608678
vt 0.307743 0.475178
vt 0.308412 0.500943
vt 0.282312 0.488730
vt 0.284218 0.562117
vt 0.283549 0.536352
vt 0.309649 0.548566
vt 0.285152 0.576675
vt 0.285821 0.602440
vt 0.259721 0.590227
vt 0.263133 0.527347
vt 0.262464 0.501582
vt 0.288564 0.513795
vt 0.281158 0.617143
vt 0.281827 0.642908
vt 0.255727 0.630695
vt 0.238840 0.563296
vt 0.238171 0.537531
vt 0.264271 0.549745
vt 0.247238 0.476750
vt 0.247907 0.502515
vt 0.221807 0.490302
vt 0.236544 0.603165
vt 0.237213 0.628931
vt 0.211113 0.616717
vt 0.219615 0.512786
vt 0.220284 0.538551
vt 0.194184 0.526338
vt 0.201002 0.594553
vt 0.200333 0.568787
vt 0.226433 0.581001
vt 0.198530 0.478015
vt 0.199199 0.503780
vt 0.173099 0.491567
vt 0.192406 0.609358
vt 0.193076 0.635123
vt 0.166976 0.622910
vt 0.918448 0.611232
vt 0.917779 0.585466
vt 0.185530 0.538899
vt 0.186200 0.564664
vt 0.160100 0.552451
vt 0.959445 0.510941
vt 0.639462 0.532706
vt 0.613362 0.520493
vt 0.165000 0.504114
vt 0.165669 0.529879
vt 0.139570 0.517666
vt 0.156864 0.600745
vt 0.156195 0.574980
vt 0.182295 0.587193
vt 0.147713 0.615564
vt 0.148383 0.641329
vt 0.122283 0.629116
vt 0.806447 0.551350
vt 0.805778 0.525585
vt 0.847823 0.461146
vt 0.835610 0.487246
vt 0.120915 0.576451
vt 0.120245 0.550686
vt 0.146345 0.562899
vt 0.124009 0.479951
vt 0.124678 0.505716
vt 0.098578 0.493503
vt 0.769974 0.604443
vt 0.757760 0.630543
vt 0.107392 0.617167
vt 0.106722 0.591402
vt 0.132822 0.603615
vt 0.903939 0.571245
vt 0.904608 0.597010
vt 0.105426 0.541535
vt 0.104757 0.515770
vt 0.130857 0.527983
vt 0.793741 0.602135
vt 0.767641 0.589922
vt 0.075960 0.572574
vt 0.075291 0.546809
vt 0.101391 0.559022
vt 0.084882 0.506195
vt 0.085551 0.531960
vt 0.059451 0.519747
vt 0.749296 0.585353
vt 0.735744 0.559923
vt 0.086978 0.586869
vt 0.087647 0.612634
vt 0.061547 0.600421
vt 0.068150 0.617631
vt 0.068820 0.643397
vt 0.042719 0.631183
vt 0.034475 0.508060
vt 0.033806 0.482295
vt 0.059906 0.494508
vt 0.562011 0.594710
vt 0.536581 0.608262
vn 0.001886 0.351704 -0.936109
vn 0.001886 0.351704 -0.936109
vn 0.001886 0.351704 -0.936109
vn 0.865062 0.478875 -0.149484
vn 0.865062 0.478875 -0.149484
vn 0.865062 0.478875 -0.149484
vn -0.878302 0.470868 0.082877
vn -0.878302 0.470868 0.082877
vn -0.878302 0.470868 0.082877
vn -0.677303 -0.693505 -0.245583
vn -0.677303 -0.693505 -0.245584
vn -0.677303 -0.693505 -0.245584
vn -0.963036 0.084515 0.255771
vn -0.963036 0.084515 0.255771
vn -0.963036 0.084515 0.255771
vn -0.508992 -0.523472 0.683304
vn -0.508992 -0.523472 0.683304
vn -0.508992 -0.523472 0.683304
vn 0.081944 0.989290 0.120788
vn 0.081944 0.989290 0.120788
vn 0.081944 0.989290 0.120788
vn -0.407489 0.771119 -0.489213
vn -0.407489 0.771119 -0.489213
vn -0.407489 0.771119 -0.489213
vn -0.355652 0.030741 0.934113
vn -0.355652 0.030741 0.934113
vn -0.355652 0.030741 0.934113
vn -0.219542 -0.922274 0.318139
vn -0.219542 -0.922274 0.318139
vn -0.219542 -0.922274 0.318139
vn 0.775732 -0.623496 0.097432
vn 0.775732 -0.623496 0.097432
vn 0.775732 -0.623496 0.097432
vn 0.858601 0.501527 -0.106185
vn 0.858601 0.501527 -0.106185
vn 0.858601 0.501527 -0.106185
vn -0.990495 0.049823 -0.128211
vn -0.990495 0.049823 -0.128211
vn -0.990495 0.049823 -0.128211
vn 0.975205 -0.217862 -0.038863
vn 0.975205 -0.217862 -0.038863
vn 0.975205 -0.217862 -0.038863
vn 0.145204 0.389429 0.909539
vn 0.145204 0.389429 0.909539
vn 0.145204 0.389429 0.909539
vn 0.271537 0.800517 0.534266
vn 0.271537 0.800517 0.534266
vn 0.271537 0.800517 0.534266
vn -0.565024 -0.824841 -0.019636
vn -0.565024 -0.824841 -0.019636
vn -0.565024 -0.824841 -0.019636
vn 0.226543 0.940576 -0.252972
vn 0.226543 0.940576 -0.252972
vn 0.226543 0.940576 -0.252972
vn 0.027402 0.368610 0.929180
vn 0.027402 0.368610 0.929180
vn 0.027402 0.368610 0.929180
vn -0.355451 0.119726 0.926995
vn -0.355451 0.119726 0.926995
vn -0.355451 0.119726 0.926995
vn 0.842633 0.530773 0.090828
vn 0.842633 0.530773 0.090828
vn 0.842633 0.530773 0.090828
vn -0.208270 0.978011 0.010826
vn -0.208270 0.978011 0.010826
vn -0.208270 0.978011 0.010826
vn 0.034543 -0.987050 -0.156652
vn 0.034543 -0.987050 -0.156652
vn 0.034543 -0.987050 -0.156652
vn 0.991000 -0.045427 -0.125916
vn 0.991000 -0.045427 -0.125916
vn 0.991000 -0.045427 -0.125916
vn -0.717357 0.604543 -0.346304
vn -0.717357 0.604543 -0.346304
vn -0.717357 0.604543 -0.346304
vn -0.073014 -0.993900 0.082660
vn -0.073014 -0.993900 0.082660
vn -0.073014 -0.993900 0.082660
vn 0.249494 0.301066 -0.920387
vn 0.249494 0.301066 -0.920387
vn 0.249494 0.301066 -0.920387
vn -0.502501 0.860993 0.078640
vn -0.502501 0.860993 0.078640
vn -0.502501 0.860993 0.078640
vn -0.493838 -0.858317 0.139343
vn -0.493838 -0.858317 0.139343
vn -0.493838 -0.858317 0.139343
vn -0.482845 -0.864330 0.140693
vn -0.482845 -0.864330 0.140693
vn -0.482845 -0.864330 0.140693
vn -0.166660 -0.958308 -0.232101
vn -0.166660 -0.958308 -0.232101
vn -0.166660 -0.958308 -0.232101
vn 0.565024 0.824841 -0.019636
vn 0.565024 0.824841 -0.019636
vn 0.565024 0.824841 -0.019636
vn -0.923454 -0.341482 0.174993
vn -0.923454 -0.341482 0.174993
vn -0.923454 -0.341482 0.174993
vn 0.502138 -0.860512 0.085885
vn 0.502138 -0.860512 0.085885
vn 0.502138 -0.860512 0.085885
vn 0.663436 -0.554240 -0.502663
vn 0.663436 -0.554240 -0.502663
vn 0.663436 -0.554240 -0.502663
vn -0.491174 -0.843136 -0.218791
vn -0.491174 -0.843136 -0.218791
vn -0.491174 -0.843136 -0.218791
vn 0.978011 0.208270 0.010826
vn 0.978011 0.208270 0.010826
vn 0.978011 0.208270 0.010826
vn -0.976147 0.216957 -0.008128
vn -0.976147 0.216957 -0.008128
vn -0.976147 0.216957 -0.008128
vn 0.939985 -0.285585 0.186735
vn 0.939985 -0.285585 0.186735
vn 0.939985 -0.285585 0.186735
vn -0.872350 0.484651 -0.064175
vn -0.872350 0.484651 -0.064175
vn -0.872350 0.484651 -0.064175
vn -0.926610 0.161551 0.339552
vn -0.926610 0.161551 0.339552
vn -0.926610 0.161551 0.339552
vn -0.916729 0.227328 -0.328527
vn -0.916729 0.227328 -0.328527
vn -0.916729 0.227328 -0.328527
vn 0.176205 -0.283280 -0.942711
vn 0.176205 -0.283280 -0.942711
vn 0.176205 -0.283280 -0.942711
vn -0.005589 -0.994456 -0.105007
vn -0.005589 -0.994456 -0.105007
vn -0.005589 -0.994456 -0.105007
vn -0.987754 0.013081 -0.155469
vn -0.987754 0.013081 -0.155469
vn -0.987754 0.013081 -0.155469
vn 0.208270 -0.978011 0.010826
vn 0.208270 -0.978011 0.010826
vn 0.208270 -0.978011 0.010826
vn -0.953838 -0.284340 0.096661
vn -0.953838 -0.284340 0.096662
vn -0.953838 -0.284340 0.096662
vn -0.250826 -0.299873 -0.920414
vn -0.250826 -0.299873 -0.920414
vn -0.250826 -0.299873 -0.920414
vn -0.176205 0.283280 -0.942711
vn -0.176205 0.283280 -0.942711
vn -0.176205 0.283280 -0.942711
vn 0.355652 -0.030741 0.934113
vn 0.355652 -0.030741 0.934113
vn 0.355652 -0.030741 0.934113
vn 0.501526 -0.858601 -0.106185
vn 0.501526 -0.858601 -0.106185
vn 0.501526 -0.858601 -0.106185
vn 0.358575 -0.113147 -0.926618
vn 0.358575 -0.113147 -0.926618
vn 0.358575 -0.113147 -0.926618
vn 0.478875 -0.865062 -0.149484
vn 0.478875 -0.865062 -0.149484
vn 0.478875 -0.865062 -0.149484
vn 0.696751 0.676737 -0.237834
vn 0.696751 0.676737 -0.237834
vn 0.696751 0.676737 -0.237834
vn 0.824841 -0.565024 -0.019636
vn 0.824841 -0.565024 -0.019636
vn 0.824841 -0.565024 -0.019636
vn 0.997480 -0.057350 0.041771
vn 0.997480 -0.057350 0.041771
vn 0.997480 -0.057350 0.041771
vn -0.733925 -0.679211 0.005147
vn -0.733925 -0.679211 0.005147
vn -0.733925 -0.679211 0.005147
vn 0.005589 0.994456 -0.105007
vn 0.005589 0.994456 -0.105007
vn 0.005589 0.994456 -0.105007
vn -0.858601 -0.501526 -0.106185
vn -0.858601 -0.501527 -0.106185
vn -0.858601 -0.501526 -0.106185
vn 0.666015 0.718723 0.199654
vn 0.666015 0.718723 0.199654
vn 0.666015 0.718723 0.199654
vn 0.873780 -0.174345 -0.453996
vn 0.873780 -0.174345 -0.453996
vn 0.873780 -0.174345 -0.453996
vn 0.693755 -0.477750 -0.538943
vn 0.693755 -0.477750 -0.538943
vn 0.693755 -0.477750 -0.538943
vn -0.865062 -0.478875 -0.149484
vn -0.865062 -0.478875 -0.149484
vn -0.865062 -0.478875 -0.149484
vn -0.374476 0.880534 0.290564
vn -0.374476 0.880534 0.290564
vn -0.374476 0.880534 0.290564
vn -0.034543 0.987050 -0.156652
vn -0.034543 0.987050 -0.156652
vn -0.034543 0.987050 -0.156652
vn 0.634183 -0.741699 -0.218390
vn 0.634183 -0.741699 -0.218390
vn 0.634183 -0.741699 -0.218390
vn 0.794013 0.583271 0.171284
vn 0.794013 0.583271 0.171284
vn 0.794013 0.583271 0.171284
vn 0.355451 -0.119726 0.926995
vn 0.355451 -0.119726 0.926995
vn 0.355451 -0.119726 0.926995
vn 0.491769 0.840752 -0.226494
vn 0.491769 0.840752 -0.226494
vn 0.491769 0.840752 -0.226494
vn 0.846403 -0.321299 0.424698
vn 0.846403 -0.321299 0.424698
vn 0.846403 -0.321299 0.424698
vn 0.987497 0.020244 -0.156334
vn 0.987497 0.020244 -0.156334
vn 0.987497 0.020244 -0.156334
vn -0.804821 -0.408156 -0.430896
vn -0.804821 -0.408156 -0.430896
vn -0.804821 -0.408156 -0.430896
vn -0.825428 0.564384 -0.011777
vn -0.825428 0.564384 -0.011777
vn -0.825428 0.564384 -0.011777
vn 0.944148 -0.178461 0.277013
vn 0.944148 -0.178461 0.277013
vn 0.944148 -0.178461 0.277013
vn 0.668848 0.742377 -0.038962
vn 0.668848 0.742377 -0.038962
vn 0.668848 0.742377 -0.038962
vn -0.978011 -0.208270 0.010826
vn -0.978011 -0.208270 0.010826
vn -0.978011 -0.208270 0.010826
vn -0.057507 -0.370458 -0.927067
vn -0.057507 -0.370458 -0.927067
vn -0.057507 -0.370458 -0.927067
vn 0.503551 0.013859 0.863854
vn 0.503551 0.013859 0.863854
vn 0.503551 0.013859 0.863854
vn 0.891993 -0.443122 -0.089395
vn 0.891993 -0.443122 -0.089395
vn 0.891993 -0.443122 -0.089395
vn -0.145204 -0.389429 0.909539
vn -0.145204 -0.389429 0.909539
vn -0.145204 -0.389429 0.909539
vn 0.278793 -0.343392 -0.896859
vn 0.278793 -0.343392 -0.896859
vn 0.278793 -0.343392 -0.896859
vn -0.269067 0.953679 0.134536
vn -0.269067 0.953679 0.134536
vn -0.269067 0.953679 0.134536
vn -0.496500 0.861774 -0.104080
vn -0.496500 0.861774 -0.104080
vn -0.496499 0.861775 -0.104080
vn -0.474149 -0.877462 -0.072413
vn -0.474149 -0.877462 -0.072413
vn -0.474149 -0.877462 -0.072413
vn 0.474148 0.877462 -0.072413
vn 0.474148 0.877462 -0.072413
vn 0.474148 0.877462 -0.072413
vn 0.377788 -0.919234 0.110842
vn 0.377788 -0.919234 0.110842
vn 0.377788 -0.919234 0.110842
vn 0.266890 -0.923149 0.276705
vn 0.266890 -0.923149 0.276705
vn 0.266891 -0.923149 0.276705
vn -0.640718 0.737388 -0.213870
vn -0.640718 0.737388 -0.213870
vn -0.640718 0.737388 -0.213870
vn -0.480181 0.864352 -0.149407
vn -0.480181 0.864352 -0.149407
vn -0.480181 0.864352 -0.149407
vn 0.129540 0.987068 0.094420
vn 0.129540 0.987068 0.094420
vn 0.129540 0.987068 0.094420
vn -0.030760 -0.355584 0.934138
vn -0.030760 -0.355584 0.934138
vn -0.030760 -0.355584 0.934138
vn -0.358575 0.113147 -0.926618
vn -0.358575 0.113147 -0.926618
vn -0.358575 0.113147 -0.926618
s off
g initialShadingGroup initialShadingGroup1 pCylinder3 polySurface4 polySurface1
f 28/1/1 5/2/2 41/3/3
f 4/4/4 34/5/5 31/6/6
f 42/7/7 14/8/8 46/9/9
f 11/10/10 43/11/11 12/12/12
f 1/13/13 7/14/14 46/15/15
f 3/16/16 7/17/17 1/13/18
f 28/18/19 13/19/20 5/20/21
f 18/21/22 25/22/23 6/23/24
f 24/24/25 35/25/26 9/26/27
f 1/27/28 10/28/29 3/29/30
f 29/30/31 32/31/32 40/32/33
f 34/33/34 4/34/35 15/35/36
f 39/36/37 16/37/38 24/38/39
f 40/39/40 9/40/41 29/41/42
f 15/42/43 2/43/44 17/44/45
f 7/45/46 20/46/47 26/47/48
f 30/48/49 35/49/50 12/50/51
f 25/51/52 38/52/53 6/53/54
f 2/54/55 23/55/56 19/56/57
f 23/57/58 24/38/59 40/58/60
f 13/59/61 47/60/62 9/40/63
f 23/61/64 2/62/65 37/63/66
f 8/64/67 27/65/68 33/66/69
f 44/67/70 34/68/71 45/69/72
f 25/70/73 18/71/74 39/72/75
f 19/73/76 36/74/77 10/75/78
f 5/76/79 9/77/80 30/78/81
f 28/79/82 42/80/83 46/81/84
f 10/82/85 1/83/86 19/84/87
f 21/85/88 19/84/89 1/83/90
f 27/86/91 8/87/92 43/88/93
f 2/89/94 15/90/95 4/91/96
f 1/92/97 14/93/98 21/94/99
f 36/95/100 40/96/101 32/97/102
f 44/98/103 27/99/104 43/100/105
f 8/101/106 12/102/107 43/103/108
f 15/104/109 45/105/110 34/106/111
f 42/107/112 17/108/113 14/109/114
f 47/110/115 32/111/116 29/112/117
f 48/113/118 39/114/119 24/115/120
f 46/116/121 14/117/122 1/118/123
f 11/119/124 39/120/125 18/121/126
f 40/122/127 36/123/128 23/124/129
f 8/125/130 33/126/131 30/127/132
f 39/128/133 11/129/134 16/130/135
f 41/131/136 30/132/137 33/133/138
f 17/134/139 21/135/140 14/136/141
f 19/137/142 17/138/143 2/139/144
f 42/140/145 28/141/146 41/142/147
f 45/143/148 15/144/149 17/145/150
f 33/146/151 22/147/152 41/148/153
f 9/149/154 40/150/155 24/151/156
f 22/147/157 33/152/158 27/153/159
f 31/154/160 6/155/161 4/156/162
f 45/157/163 41/158/164 22/159/165
f 29/160/166 9/161/167 47/162/168
f 19/163/169 21/164/170 17/165/171
f 38/166/172 37/167/173 2/168/174
f 16/169/175 12/170/176 35/171/177
f 26/172/178 20/173/179 13/174/180
f 44/175/181 6/176/182 31/177/183
f 43/178/184 6/179/185 44/180/186
f 12/181/187 16/182/188 11/183/189
f 26/184/190 46/185/191 7/186/192
f 38/187/193 25/188/194 37/189/195
f 27/190/196 44/191/197 22/192/198
f 47/193/199 13/194/200 20/195/201
f 41/196/202 45/197/203 42/198/204
f 38/199/205 4/200/206 6/201/207
f 20/202/208 3/203/209 32/31/210
f 44/204/211 31/205/212 34/206/213
f 43/11/214 11/10/215 18/207/216
f 24/24/217 23/208/218 48/209/219
f 32/210/220 47/211/221 20/212/222
f 9/213/223 5/214/224 13/215/225
f 35/216/226 24/217/227 16/218/228
f 36/219/229 19/220/230 23/61/231
f 20/46/232 7/221/233 3/222/234
f 22/223/235 44/224/236 45/225/237
f 35/226/238 30/227/239 9/228/240
f 6/53/241 43/229/242 18/230/243
f 28/231/244 46/232/245 26/233/246
f 37/234/247 48/235/248 23/57/249
f 12/236/250 8/237/251 30/238/252
f 4/91/253 38/239/254 2/240/255
f 36/241/256 32/242/257 10/243/258
f 10/244/259 32/245/260 3/246/261
f 25/247/262 39/72/263 48/248/264
f 48/249/265 37/250/266 25/251/267
f 13/252/268 28/253/269 26/254/270
f 30/255/271 41/256/272 5/257/273
f 17/258/274 42/80/275 45/259/276
