# This file uses centimeters as units for non-parametric coordinates.

mtllib Tower-CAPTUREBASE.mtl
g default1
v -0.390337 -0.390337 -0.002529
v 0.390337 -0.390337 -0.002529
v -0.268943 -0.268943 1.663525
v 0.268943 -0.268943 1.663525
v -0.268943 0.268943 1.663525
v 0.268943 0.268943 1.663525
v -0.390337 0.390337 -0.002529
v 0.390337 0.390337 -0.002529
v -0.268943 0.000000 1.288475
v 0.000000 0.268943 1.288475
v 0.000000 -0.268943 1.288475
v 0.000000 0.000000 1.288475
v 0.268943 0.000000 1.288475
v -0.186496 -0.186649 0.558537
v 0.187046 -0.186892 0.556784
v -0.186496 0.186649 0.558537
v 0.187046 0.186892 0.556784
vt 0.383408 0.033634
vt 0.616592 0.033634
vt 0.616592 0.111761
vt 0.383408 0.112316
vt 0.500000 0.500000
vt 0.500000 0.383408
vt 0.616592 0.383408
vt 0.616592 0.500000
vt 0.383408 0.500000
vt 0.616592 0.655056
vt 0.383408 0.654501
vt 0.383408 0.733183
vt 0.616592 0.733183
vt 0.616592 0.966366
vt 0.383408 0.966366
vt 0.849775 0.033634
vt 0.849775 0.111761
vt 0.150225 0.033634
vt 0.150225 0.112316
vt 0.383408 0.383408
vt 0.383408 0.266817
vt 0.500000 0.266817
vt 0.616592 0.266817
vt 0.849775 0.266817
vt 0.733183 0.266817
vt 0.266817 0.266817
vt 0.150225 0.266817
vn 0.000321 -0.939868 0.341537
vn -0.000100 -0.992013 0.126140
vn 0.000321 -0.939868 0.341537
vn -0.000102 -0.992166 0.124926
vn 0.000000 0.000000 1.000000
vn -0.571958 0.000000 0.820283
vn 0.000000 -0.571958 0.820283
vn -0.496485 -0.496485 0.712043
vn -0.000510 0.995712 -0.092501
vn -0.000510 0.995713 -0.092501
vn -0.000102 0.992166 0.124926
vn -0.000510 0.995713 -0.092501
vn -0.000100 0.992013 0.126140
vn 0.000000 0.000000 -1.000000
vn 0.000000 0.000000 -1.000000
vn 0.000000 0.000000 -1.000000
vn 0.000000 0.000000 -1.000000
vn 0.939845 0.000000 0.341602
vn 0.939845 0.000000 0.341602
vn 0.992093 0.000000 0.125507
vn 0.992093 0.000000 0.125507
vn -0.939892 0.000000 0.341472
vn -0.939892 0.000000 0.341472
vn -0.992086 0.000000 0.125558
vn -0.992086 0.000000 0.125558
vn 0.000000 0.000000 1.000000
vn 0.000000 -0.571958 0.820283
vn 0.571958 0.000000 0.820283
vn 0.496485 -0.496485 0.712043
vn 0.496485 0.496485 0.712043
vn 0.000000 0.571958 0.820283
vn 0.571958 0.000000 0.820283
vn 0.000000 0.000000 1.000000
vn 0.000000 0.000000 1.000000
vn 0.000000 0.571958 0.820283
vn -0.571958 0.000000 0.820283
vn -0.496485 0.496485 0.712043
vn -0.000510 -0.995713 -0.092501
vn -0.000510 -0.995713 -0.092501
vn -0.000100 -0.992013 0.126140
vn -0.000510 -0.995713 -0.092501
vn -0.000102 -0.992166 0.124926
vn -0.000102 0.992166 0.124926
vn -0.000100 0.992013 0.126140
vn 0.000321 0.939868 0.341537
vn 0.000321 0.939868 0.341537
vn 0.995750 0.000000 -0.092098
vn 0.995750 0.000000 -0.092098
vn 0.992093 0.000000 0.125507
vn 0.995750 0.000000 -0.092098
vn 0.992093 0.000000 0.125507
vn -0.995675 0.000000 -0.092906
vn -0.995675 0.000000 -0.092906
vn -0.992086 0.000000 0.125558
vn -0.995675 0.000000 -0.092906
vn -0.992086 0.000000 0.125558
s 1
g initialShadingGroup polySurface6 polySurface11 polySurface1
f 2/2/1 15/3/2 1/1/3
f 1/1/3 15/3/2 14/4/4
s 2
f 12/6/5 13/7/6 10/5/7
f 10/5/7 13/7/6 6/8/8
s 3
f 5/9/9 10/5/10 16/11/11
f 6/8/12 17/10/13 10/5/10
f 10/5/10 17/10/13 16/11/11
s 4
f 7/12/14 8/13/15 1/15/16
f 1/15/16 8/13/15 2/14/17
s 5
f 2/2/18 8/16/19 15/3/20
f 15/3/20 8/16/19 17/17/21
s 6
f 7/18/22 1/1/23 16/19/24
f 16/19/24 1/1/23 14/4/25
s 7
f 12/6/26 10/5/27 9/20/28
f 9/20/28 10/5/27 5/9/29
s 8
f 3/21/30 11/22/31 9/20/32
f 9/20/32 11/22/31 12/6/33
s 9
f 12/6/34 11/22/35 13/7/36
f 13/7/36 11/22/35 4/23/37
s 10
f 4/23/38 11/22/39 15/3/40
f 3/21/41 14/4/42 11/22/39
f 14/4/42 15/3/40 11/22/39
s 11
f 16/11/43 17/10/44 7/12/45
f 7/12/45 17/10/44 8/13/46
s 12
f 6/24/47 13/25/48 17/17/49
f 4/23/50 15/3/51 13/25/48
f 15/3/51 17/17/49 13/25/48
s 13
f 3/21/52 9/26/53 14/4/54
f 5/27/55 16/19/56 9/26/53
f 16/19/56 14/4/54 9/26/53
