# This file uses centimeters as units for non-parametric coordinates.

mtllib Tower-CAPTURERING2.mtl
g default
v 0.449949 -0.000000 0.154639
v 0.382005 -0.000000 0.287986
v 0.276181 -0.000000 0.393810
v 0.142834 -0.000000 0.461754
v -0.004981 -0.000000 0.485165
v -0.152797 -0.000000 0.461754
v -0.286144 -0.000000 0.393810
v -0.391968 -0.000000 0.287986
v -0.459911 -0.000000 0.154639
v -0.483323 -0.000000 0.006824
v -0.459911 -0.000000 -0.140992
v -0.391968 -0.000000 -0.274338
v -0.286144 -0.000000 -0.380163
v -0.152797 -0.000000 -0.448106
v -0.004981 -0.000000 -0.471518
v 0.142834 -0.000000 -0.448106
v 0.276181 -0.000000 -0.380163
v 0.382005 -0.000000 -0.274338
v 0.449948 -0.000000 -0.140992
v 0.473360 -0.000000 0.006824
v 0.485864 -0.021803 0.166309
v 0.412557 -0.021803 0.310183
v 0.298378 -0.021803 0.424362
v 0.154504 -0.021803 0.497669
v -0.004981 -0.021803 0.522929
v -0.164467 -0.021803 0.497669
v -0.308341 -0.021803 0.424362
v -0.422520 -0.021803 0.310183
v -0.495827 -0.021803 0.166309
v -0.521087 -0.021803 0.006824
v -0.495827 -0.021803 -0.152662
v -0.422519 -0.021803 -0.296535
v -0.308341 -0.021803 -0.410714
v -0.164467 -0.021803 -0.484022
v -0.004981 -0.021803 -0.509282
v 0.154504 -0.021803 -0.484022
v 0.298378 -0.021803 -0.410714
v 0.412557 -0.021803 -0.296535
v 0.485864 -0.021803 -0.152662
v 0.511124 -0.021803 0.006824
v 0.485864 0.021803 0.166309
v 0.412557 0.021803 0.310183
v 0.298378 0.021803 0.424362
v 0.154504 0.021803 0.497669
v -0.004981 0.021803 0.522929
v -0.164467 0.021803 0.497669
v -0.308341 0.021803 0.424362
v -0.422520 0.021803 0.310183
v -0.495827 0.021803 0.166309
v -0.521087 0.021803 0.006824
v -0.495827 0.021803 -0.152662
v -0.422519 0.021803 -0.296535
v -0.308341 0.021803 -0.410714
v -0.164467 0.021803 -0.484022
v -0.004981 0.021803 -0.509282
v 0.154504 0.021803 -0.484022
v 0.298378 0.021803 -0.410714
v 0.412557 0.021803 -0.296535
v 0.485864 0.021803 -0.152662
v 0.511124 0.021803 0.006824
vt 0.050000 1.000000
vt 0.000000 1.000000
vt 0.000000 0.666667
vt 0.050000 0.666667
vt 0.100000 1.000000
vt 0.100000 0.666667
vt 0.150000 1.000000
vt 0.150000 0.666667
vt 0.200000 1.000000
vt 0.200000 0.666667
vt 0.250000 1.000000
vt 0.250000 0.666667
vt 0.300000 1.000000
vt 0.300000 0.666667
vt 0.350000 1.000000
vt 0.350000 0.666667
vt 0.400000 1.000000
vt 0.400000 0.666667
vt 0.450000 1.000000
vt 0.450000 0.666667
vt 0.500000 1.000000
vt 0.500000 0.666667
vt 0.550000 1.000000
vt 0.550000 0.666667
vt 0.600000 1.000000
vt 0.600000 0.666667
vt 0.650000 1.000000
vt 0.650000 0.666667
vt 0.700000 1.000000
vt 0.700000 0.666667
vt 0.750000 1.000000
vt 0.750000 0.666667
vt 0.800000 1.000000
vt 0.800000 0.666667
vt 0.850000 1.000000
vt 0.850000 0.666667
vt 0.900000 1.000000
vt 0.900000 0.666667
vt 0.950000 1.000000
vt 0.950000 0.666667
vt 1.000000 1.000000
vt 1.000000 0.666667
vt 0.000000 0.333333
vt 0.050000 0.333333
vt 0.100000 0.333333
vt 0.150000 0.333333
vt 0.200000 0.333333
vt 0.250000 0.333333
vt 0.300000 0.333333
vt 0.350000 0.333333
vt 0.400000 0.333333
vt 0.450000 0.333333
vt 0.500000 0.333333
vt 0.550000 0.333333
vt 0.600000 0.333333
vt 0.650000 0.333333
vt 0.700000 0.333333
vt 0.750000 0.333333
vt 0.800000 0.333333
vt 0.850000 0.333333
vt 0.900000 0.333333
vt 0.950000 0.333333
vt 1.000000 0.333333
vt 0.000000 -0.000000
vt 0.050000 -0.000000
vt 0.100000 -0.000000
vt 0.150000 -0.000000
vt 0.200000 -0.000000
vt 0.250000 -0.000000
vt 0.300000 -0.000000
vt 0.350000 -0.000000
vt 0.400000 -0.000000
vt 0.450000 -0.000000
vt 0.500000 -0.000000
vt 0.550000 -0.000000
vt 0.600000 -0.000000
vt 0.650000 -0.000000
vt 0.700000 -0.000000
vt 0.750000 -0.000000
vt 0.800000 -0.000000
vt 0.850000 -0.000000
vt 0.900000 -0.000000
vt 0.950000 -0.000000
vt 1.000000 -0.000000
vn -0.404507 -0.866026 -0.293892
vn -0.475527 -0.866026 -0.154507
vn -0.475527 -0.866026 -0.154508
vn -0.404507 -0.866026 -0.293892
vn -0.293892 -0.866026 -0.404508
vn -0.293892 -0.866026 -0.404508
vn -0.154508 -0.866025 -0.475529
vn -0.154509 -0.866025 -0.475529
vn 0.000000 -0.866025 -0.500000
vn 0.000000 -0.866025 -0.500000
vn 0.154508 -0.866026 -0.475528
vn 0.154508 -0.866026 -0.475528
vn 0.293893 -0.866025 -0.404509
vn 0.293893 -0.866025 -0.404509
vn 0.404509 -0.866025 -0.293893
vn 0.404509 -0.866025 -0.293893
vn 0.475528 -0.866026 -0.154508
vn 0.475528 -0.866025 -0.154508
vn 0.500000 -0.866025 0.000000
vn 0.500000 -0.866025 -0.000000
vn 0.475528 -0.866026 0.154509
vn 0.475528 -0.866026 0.154509
vn 0.404508 -0.866026 0.293893
vn 0.404508 -0.866026 0.293893
vn 0.293893 -0.866025 0.404508
vn 0.293893 -0.866025 0.404508
vn 0.154508 -0.866025 0.475529
vn 0.154508 -0.866025 0.475529
vn -0.000000 -0.866025 0.500001
vn -0.000000 -0.866025 0.500001
vn -0.154509 -0.866025 0.475528
vn -0.154509 -0.866025 0.475528
vn -0.293892 -0.866026 0.404508
vn -0.293892 -0.866026 0.404508
vn -0.404508 -0.866026 0.293892
vn -0.404508 -0.866026 0.293892
vn -0.475528 -0.866026 0.154508
vn -0.475528 -0.866026 0.154508
vn -0.500000 -0.866026 0.000001
vn -0.500000 -0.866026 0.000000
vn 0.809017 0.000000 0.587785
vn 0.951057 0.000000 0.309016
vn 0.951057 0.000000 0.309016
vn 0.809017 0.000000 0.587785
vn 0.587785 0.000000 0.809017
vn 0.587785 0.000000 0.809017
vn 0.309017 0.000000 0.951057
vn 0.309017 0.000000 0.951057
vn 0.000000 0.000000 1.000000
vn 0.000000 0.000000 1.000000
vn -0.309017 0.000000 0.951057
vn -0.309017 0.000000 0.951057
vn -0.587786 0.000000 0.809017
vn -0.587786 0.000000 0.809017
vn -0.809017 0.000000 0.587785
vn -0.809017 0.000000 0.587785
vn -0.951057 0.000000 0.309017
vn -0.951057 0.000000 0.309017
vn -1.000000 0.000000 0.000000
vn -1.000000 0.000000 0.000000
vn -0.951056 -0.000000 -0.309017
vn -0.951056 -0.000000 -0.309017
vn -0.809017 -0.000000 -0.587785
vn -0.809017 -0.000000 -0.587785
vn -0.587785 -0.000000 -0.809017
vn -0.587785 -0.000000 -0.809017
vn -0.309017 -0.000000 -0.951057
vn -0.309017 -0.000000 -0.951057
vn 0.000000 -0.000000 -1.000000
vn 0.000000 -0.000000 -1.000000
vn 0.309017 -0.000000 -0.951057
vn 0.309017 -0.000000 -0.951057
vn 0.587785 -0.000000 -0.809017
vn 0.587785 -0.000000 -0.809017
vn 0.809017 -0.000000 -0.587785
vn 0.809017 -0.000000 -0.587785
vn 0.951057 -0.000000 -0.309017
vn 0.951057 -0.000000 -0.309017
vn 1.000000 -0.000000 -0.000001
vn 1.000000 -0.000000 -0.000001
vn -0.404507 0.866026 -0.293892
vn -0.475527 0.866026 -0.154508
vn -0.475528 0.866026 -0.154507
vn -0.404508 0.866026 -0.293892
vn -0.293892 0.866026 -0.404508
vn -0.293892 0.866026 -0.404508
vn -0.154509 0.866025 -0.475529
vn -0.154508 0.866025 -0.475529
vn 0.000000 0.866025 -0.500000
vn 0.000000 0.866025 -0.500000
vn 0.154508 0.866026 -0.475528
vn 0.154509 0.866026 -0.475528
vn 0.293893 0.866025 -0.404509
vn 0.293893 0.866025 -0.404509
vn 0.404509 0.866025 -0.293893
vn 0.404509 0.866025 -0.293893
vn 0.475528 0.866025 -0.154508
vn 0.475528 0.866025 -0.154508
vn 0.500000 0.866025 -0.000000
vn 0.500000 0.866025 -0.000000
vn 0.475528 0.866025 0.154509
vn 0.475528 0.866025 0.154509
vn 0.404508 0.866026 0.293893
vn 0.404508 0.866026 0.293893
vn 0.293893 0.866025 0.404509
vn 0.293893 0.866025 0.404509
vn 0.154509 0.866025 0.475529
vn 0.154509 0.866025 0.475529
vn -0.000000 0.866025 0.500001
vn -0.000000 0.866025 0.500001
vn -0.154509 0.866025 0.475528
vn -0.154509 0.866025 0.475528
vn -0.293892 0.866026 0.404508
vn -0.293892 0.866026 0.404508
vn -0.404508 0.866026 0.293893
vn -0.404508 0.866026 0.293893
vn -0.475528 0.866025 0.154509
vn -0.475528 0.866025 0.154509
vn -0.500000 0.866026 0.000000
vn -0.500000 0.866026 0.000000
s 1
g polySurface13 polySurface6
usemtl blinn1SG
f 2/1/1 1/2/2 21/3/3 22/4/4
f 3/5/5 2/1/1 22/4/4 23/6/6
f 4/7/7 3/5/5 23/6/6 24/8/8
f 5/9/9 4/7/7 24/8/8 25/10/10
f 6/11/11 5/9/9 25/10/10 26/12/12
f 7/13/13 6/11/11 26/12/12 27/14/14
f 8/15/15 7/13/13 27/14/14 28/16/16
f 9/17/17 8/15/15 28/16/16 29/18/18
f 10/19/19 9/17/17 29/18/18 30/20/20
f 11/21/21 10/19/19 30/20/20 31/22/22
f 12/23/23 11/21/21 31/22/22 32/24/24
f 13/25/25 12/23/23 32/24/24 33/26/26
f 14/27/27 13/25/25 33/26/26 34/28/28
f 15/29/29 14/27/27 34/28/28 35/30/30
f 16/31/31 15/29/29 35/30/30 36/32/32
f 17/33/33 16/31/31 36/32/32 37/34/34
f 18/35/35 17/33/33 37/34/34 38/36/36
f 19/37/37 18/35/35 38/36/36 39/38/38
f 20/39/39 19/37/37 39/38/38 40/40/40
f 1/41/2 20/39/39 40/40/40 21/42/3
s 2
f 22/4/41 21/3/42 41/43/43 42/44/44
f 23/6/45 22/4/41 42/44/44 43/45/46
f 24/8/47 23/6/45 43/45/46 44/46/48
f 25/10/49 24/8/47 44/46/48 45/47/50
f 26/12/51 25/10/49 45/47/50 46/48/52
f 27/14/53 26/12/51 46/48/52 47/49/54
f 28/16/55 27/14/53 47/49/54 48/50/56
f 29/18/57 28/16/55 48/50/56 49/51/58
f 30/20/59 29/18/57 49/51/58 50/52/60
f 31/22/61 30/20/59 50/52/60 51/53/62
f 32/24/63 31/22/61 51/53/62 52/54/64
f 33/26/65 32/24/63 52/54/64 53/55/66
f 34/28/67 33/26/65 53/55/66 54/56/68
f 35/30/69 34/28/67 54/56/68 55/57/70
f 36/32/71 35/30/69 55/57/70 56/58/72
f 37/34/73 36/32/71 56/58/72 57/59/74
f 38/36/75 37/34/73 57/59/74 58/60/76
f 39/38/77 38/36/75 58/60/76 59/61/78
f 40/40/79 39/38/77 59/61/78 60/62/80
f 21/42/42 40/40/79 60/62/80 41/63/43
s 3
f 42/44/81 41/43/82 1/64/83 2/65/84
f 43/45/85 42/44/81 2/65/84 3/66/86
f 44/46/87 43/45/85 3/66/86 4/67/88
f 45/47/89 44/46/87 4/67/88 5/68/90
f 46/48/91 45/47/89 5/68/90 6/69/92
f 47/49/93 46/48/91 6/69/92 7/70/94
f 48/50/95 47/49/93 7/70/94 8/71/96
f 49/51/97 48/50/95 8/71/96 9/72/98
f 50/52/99 49/51/97 9/72/98 10/73/100
f 51/53/101 50/52/99 10/73/100 11/74/102
f 52/54/103 51/53/101 11/74/102 12/75/104
f 53/55/105 52/54/103 12/75/104 13/76/106
f 54/56/107 53/55/105 13/76/106 14/77/108
f 55/57/109 54/56/107 14/77/108 15/78/110
f 56/58/111 55/57/109 15/78/110 16/79/112
f 57/59/113 56/58/111 16/79/112 17/80/114
f 58/60/115 57/59/113 17/80/114 18/81/116
f 59/61/117 58/60/115 18/81/116 19/82/118
f 60/62/119 59/61/117 19/82/118 20/83/120
f 41/63/82 60/62/119 20/83/120 1/84/83
